:SAMPLES-PER-SECOND 30
:FULLY-SPECIFIED
:DEGREES
332
root  9.57798 37.9636 -11.2267 157.014 66.3696 154.217
RightUpLeg  2.92275 -3.84536 -20.8819
RightLeg  49.2935 -10.2949 -12.7037
RightFoot  3.13658 -0.898427 6.8756
RightToes  0.00048216 0.542163 -0.142577
Spine  15.0083 1.01229 -6.25326
Spine1  11.6422 1.83331 -4.73188
HEad  2.99679 -3.95466 3.30498
LeftShoulder1  8.13618 -12.4586 -44.3897
LeftArm  -12.584 25.3533 -24.3429
LeftForeArm  21.0421 -12.1631 -4.08531
LeftHand  -0.25398 0.0180481 5.50724
RightShoulder  5.52216 9.42711 36.7054
RightArm  13.1477 -14.2897 35.7482
RightForeArm  -14.5723 24.3037 5.90875
RightHand  -2.02621 5.28252 -22.1481
LeftUpLeg  -24.4608 19.9385 -12.6257
LeftLeg  29.9604 6.55563 4.42053
LeftFoot  -7.51482 -0.00363726 1.4829
LeftToes  1.06245e-005 4.65855e-005 -8.18504e-006
333
root  10.4486 38.0986 -11.876 157.051 66.005 154.7
RightUpLeg  -3.76154 -3.45939 -19.9213
RightLeg  57.2116 -4.32783 -7.64147
RightFoot  5.24681 -0.686642 4.9193
RightToes  0.00048216 0.542163 -0.142577
Spine  16.5088 0.766132 -7.83385
Spine1  11.9635 0.821648 -3.37768
HEad  3.14266 -3.34449 3.60349
LeftShoulder1  8.25315 -12.6173 -44.5935
LeftArm  -11.7041 20.9962 -23.5292
LeftForeArm  20.8497 -12.5851 -4.42338
LeftHand  -0.25398 0.0180481 5.50724
RightShoulder  5.49967 9.44505 36.4791
RightArm  13.0488 -14.4791 36.3633
RightForeArm  -13.0798 24.6308 5.91495
RightHand  -1.99968 5.4227 -21.6036
LeftUpLeg  -21.989 20.1801 -12.2759
LeftLeg  29.9661 6.00627 4.0857
LeftFoot  -9.29335 0.0385069 0.929174
LeftToes  1.06245e-005 4.65855e-005 -8.18504e-006
334
root  11.3333 38.2721 -12.5214 158.028 65.8161 156.399
RightUpLeg  -9.79475 -4.38222 -18.3977
RightLeg  62.2059 -0.932565 -2.59604
RightFoot  3.48551 -0.980649 7.74428
RightToes  0.00048216 0.542163 -0.142577
Spine  18.0725 0.446222 -8.24272
Spine1  12.5466 -0.041137 -2.39322
HEad  3.04893 -2.84449 3.62505
LeftShoulder1  8.4583 -12.8757 -44.9987
LeftArm  -10.7826 15.9203 -22.3556
LeftForeArm  20.992 -13.3777 -4.67275
LeftHand  -0.25398 0.0180481 5.50724
RightShoulder  5.53399 9.45955 36.6903
RightArm  12.0916 -14.7082 36.696
RightForeArm  -12.0463 25.1486 5.98557
RightHand  -2.11666 5.95061 -21.799
LeftUpLeg  -19.1163 20.1327 -11.1908
LeftLeg  29.743 5.65193 3.83775
LeftFoot  -11.281 0.0674291 0.0267314
LeftToes  1.06245e-005 4.65855e-005 -8.18504e-006
335
root  12.257 38.4577 -13.1715 159.255 65.8604 158.181
RightUpLeg  -15.6009 -6.74567 -16.3433
RightLeg  64.0529 -1.02753 -2.91226
RightFoot  1.52229 -1.07042 9.52356
RightToes  0.00048216 0.542163 -0.142577
Spine  19.311 0.204906 -8.31745
Spine1  13.1051 -0.758505 -1.39996
HEad  3.13291 -2.45589 3.53081
LeftShoulder1  8.68554 -13.1827 -45.3737
LeftArm  -11.4571 10.9497 -21.5173
LeftForeArm  21.0209 -14.6152 -4.46043
LeftHand  -0.25398 0.0180481 5.50724
RightShoulder  5.60875 9.51467 37.0721
RightArm  11.6605 -14.9641 36.7836
RightForeArm  -12.2893 25.3331 6.03967
RightHand  -2.29855 6.52803 -22.5162
LeftUpLeg  -16.2177 20.1907 -9.97364
LeftLeg  29.1451 5.459 3.64212
LeftFoot  -12.7715 0.0675282 -0.797536
LeftToes  1.06245e-005 4.65855e-005 -8.18504e-006
336
root  13.2117 38.6294 -13.8213 160.337 66.0031 159.628
RightUpLeg  -21.0397 -10.0924 -13.6585
RightLeg  62.7162 -2.754 -6.30761
RightFoot  0.101302 -0.763947 7.59791
RightToes  0.00048216 0.542163 -0.142577
Spine  20.4163 0.00841302 -8.60733
Spine1  13.3807 -1.56882 0.0165866
HEad  3.36526 -1.91747 3.44118
LeftShoulder1  8.81556 -13.3949 -45.4788
LeftArm  -13.7657 6.70057 -21.2647
LeftForeArm  20.2768 -16.6946 -3.94294
LeftHand  -0.25398 0.0180481 5.50724
RightShoulder  5.69343 9.63578 37.3118
RightArm  12.1608 -15.1154 36.8188
RightForeArm  -12.4356 25.0445 5.97993
RightHand  -2.29728 6.48332 -22.5787
LeftUpLeg  -13.379 20.4771 -8.88255
LeftLeg  28.2549 5.21689 3.38651
LeftFoot  -13.8683 0.0589104 -1.12035
LeftToes  1.06245e-005 4.65855e-005 -8.18504e-006
337
root  14.1696 38.7177 -14.459 161.327 66.0175 161.104
RightUpLeg  -25.4594 -13.5858 -10.5784
RightLeg  58.0688 -3.77541 -7.03367
RightFoot  -1.0217 -0.515607 5.65398
RightToes  0.00048216 0.542163 -0.142577
Spine  21.8007 -0.257717 -8.86782
Spine1  13.491 -2.54923 1.61543
HEad  3.34258 -1.20847 3.23626
LeftShoulder1  8.8801 -13.5329 -45.4392
LeftArm  -16.4515 2.81832 -21.0721
LeftForeArm  18.9215 -19.3068 -3.67674
LeftHand  -0.25398 0.0180481 5.50724
RightShoulder  5.77154 9.79728 37.3708
RightArm  12.791 -15.208 36.8332
RightForeArm  -11.2898 24.7 5.84675
RightHand  -2.02432 5.61017 -21.4904
LeftUpLeg  -10.5771 20.625 -7.7295
LeftLeg  27.7488 4.83983 3.1088
LeftFoot  -15.5 0.0331847 -1.60628
LeftToes  1.06245e-005 4.65855e-005 -8.18504e-006
338
root  15.1623 38.6624 -15.0929 161.907 65.8593 162.287
RightUpLeg  -28.5409 -16.7804 -7.5802
RightLeg  50.4368 -3.12751 -4.45992
RightFoot  -1.52478 -0.569985 6.50874
RightToes  0.00048216 0.542163 -0.142577
Spine  23.2758 -0.521648 -9.02723
Spine1  13.6813 -3.49051 3.01587
HEad  2.93041 -0.599889 2.83774
LeftShoulder1  9.01374 -13.7533 -45.5374
LeftArm  -18.6336 -1.33852 -20.4214
LeftForeArm  17.848 -21.5853 -3.80624
LeftHand  -0.25398 0.0180481 5.50724
RightShoulder  5.84022 9.96293 37.3477
RightArm  12.9437 -15.4482 36.7383
RightForeArm  -9.58398 24.6267 5.74889
RightHand  -1.7156 4.57815 -20.1441
LeftUpLeg  -7.93047 20.4601 -6.64702
LeftLeg  28.0997 4.55685 2.98671
LeftFoot  -17.7158 -0.0407719 -2.631
LeftToes  1.06245e-005 4.65855e-005 -8.18504e-006
